
        <svg xmlns="http://www.w3.org/2000/svg" xmlns:xlink="http://www.w3.org/1999/xlink" version="1.1" width="3168.5393258426966" 
        height="691.6770347693639" viewBox="0 0 3168.5393258426966 691.6770347693639">
			
			<g transform="scale(8.426966292134832) translate(10, 10)">
				<defs id="SvgjsDefs3881"></defs><g id="SvgjsG3882" featureKey="symbolFeature-0" transform="matrix(1.2345679012345678,0,0,1.2345679012345678,-11.728395061728394,-30.68889099874614)" fill="#b81f40"><g xmlns="http://www.w3.org/2000/svg"><path d="M85.049,59.401c-4.446-14.082-15.138-24.271-27.77-27.138c0.001-0.04,0.006-0.079,0.006-0.119   c0-4.018-3.268-7.286-7.285-7.286c-4.018,0-7.286,3.269-7.286,7.286c0,0.04,0.005,0.079,0.006,0.119   C30.089,35.13,19.397,45.319,14.951,59.401l-0.616,1.951h71.33L85.049,59.401z M50,27.858c2.218,0,4.027,1.701,4.242,3.864   c-1.397-0.183-2.813-0.278-4.243-0.278c-1.429,0-2.845,0.096-4.242,0.278C45.973,29.56,47.782,27.858,50,27.858z M18.48,58.353   c5.321-14.384,17.763-23.908,31.519-23.908c13.757,0,26.198,9.524,31.521,23.908H18.48z"></path><path d="M90.5,64.358h-81v3h5.388c0,0.032-0.007,0.063-0.007,0.097c0,3.306,2.431,6.29,6.194,7.603l0.24,0.084h57.372l0.239-0.084   c3.762-1.313,6.192-4.298,6.192-7.603c0-0.033-0.008-0.063-0.008-0.097h5.39V64.358z M82.118,67.455   c0,2.203-1.949,3.914-3.953,4.687h-56.33c-2.004-0.771-3.954-2.483-3.954-4.687c0-0.033,0.007-0.064,0.008-0.097h64.219   C82.111,67.391,82.118,67.422,82.118,67.455z"></path><path d="M53.501,38.407l-0.081,3.078c7.271,1.86,13.769,6.402,18.526,12.807l3.751,0.098C70.318,46.233,62.424,40.49,53.501,38.407   z"></path></g></g><g id="SvgjsG3883" featureKey="textGroupContainer" transform="matrix(1,0,0,1,355,4)" fill="#a6a6a6"><rect xmlns="http://www.w3.org/2000/svg" y="0" height="1" width="1" opacity="0"></rect><rect xmlns="http://www.w3.org/2000/svg" y="0" x="-235" width="3" height="54"></rect></g><g id="SvgjsG3884" featureKey="vMvB0T-0" transform="matrix(1.767096655422556,0,0,1.767096655422556,135.38469691626992,8.705070345403682)" fill="#000000"><path d="M3.42 7.300000000000001 l0 4.42 l3.5 0 c1.86 0 3 -0.56 3 -2.32 c0 -1.34 -0.82 -2.1 -2.98 -2.1 l-3.52 0 z M1.48 20 l0 -14.36 l6.32 0 c2.68 0 4.06 1.66 4.06 3.62 c0 0.94 -0.34 2.26 -1.92 3 c0.94 0.38 2.6 1.04 2.6 3.5 c0 2.3 -1.7 4.24 -4.88 4.24 l-6.18 0 z M3.42 13.3 l0 5.04 l4.14 0 c2.02 0 3.04 -1.02 3.04 -2.62 c0 -2.02 -1.78 -2.42 -3.36 -2.42 l-3.82 0 z M20.98 14.219999999999999 l0 5.78 l-1.94 0 l0 -5.78 l-5.42 -8.58 l2.26 0 l4.12 6.9 l4.12 -6.9 l2.28 0 z M26.96 7.359999999999999 l0 -1.72 l11.66 0 l0 1.72 l-4.86 0 l0 12.64 l-1.94 0 l0 -12.64 l-4.86 0 z M51.22 18.28 l0 1.72 l-10.6 0 l0 -14.36 l10.46 0 l0 1.72 l-8.52 0 l0 4.4 l7.86 0 l0 1.72 l-7.86 0 l0 4.8 l8.66 0 z M61.22 7.300000000000001 l0 4.42 l3.5 0 c1.86 0 3 -0.56 3 -2.32 c0 -1.34 -0.82 -2.1 -2.98 -2.1 l-3.52 0 z M59.279999999999994 20 l0 -14.36 l6.32 0 c2.68 0 4.06 1.66 4.06 3.62 c0 0.94 -0.34 2.26 -1.92 3 c0.94 0.38 2.6 1.04 2.6 3.5 c0 2.3 -1.7 4.24 -4.88 4.24 l-6.18 0 z M61.22 13.3 l0 5.04 l4.14 0 c2.02 0 3.04 -1.02 3.04 -2.62 c0 -2.02 -1.78 -2.42 -3.36 -2.42 l-3.82 0 z M74.9 5.640000000000001 l0 14.36 l-1.94 0 l0 -14.36 l1.94 0 z M76.98 7.359999999999999 l0 -1.72 l11.66 0 l0 1.72 l-4.86 0 l0 12.64 l-1.94 0 l0 -12.64 l-4.86 0 z M101.24000000000001 18.28 l0 1.72 l-10.6 0 l0 -14.36 l10.46 0 l0 1.72 l-8.52 0 l0 4.4 l7.86 0 l0 1.72 l-7.86 0 l0 4.8 l8.66 0 z M114.26 9.84 l-1.82 0 c-0.1 -2.22 -1.94 -2.92 -3.56 -2.92 c-1.22 0 -3.28 0.34 -3.28 2.52 c0 1.22 0.86 1.62 1.7 1.82 l4.1 0.94 c1.86 0.44 3.26 1.56 3.26 3.84 c0 3.4 -3.16 4.34 -5.62 4.34 c-2.66 0 -3.7 -0.8 -4.34 -1.38 c-1.22 -1.1 -1.46 -2.3 -1.46 -3.64 l1.82 0 c0 2.6 2.12 3.36 3.96 3.36 c1.4 0 3.76 -0.36 3.76 -2.42 c0 -1.5 -0.7 -1.98 -3.06 -2.54 l-2.94 -0.68 c-0.94 -0.22 -3.06 -0.88 -3.06 -3.38 c0 -2.24 1.46 -4.44 4.94 -4.44 c5.02 0 5.52 3 5.6 4.58 z"></path></g>
			</g>
		</svg>
	